<?xml version="1.0" encoding="UTF-8" standalone="no"?>
<svg
   width="241"
   height="241"
   viewBox="0 0 241 241"
   version="1.1"
   id="svg3763"
   sodipodi:docname="gradle-logo.svg"
   inkscape:version="1.1.2 (b8e25be8, 2022-02-05)"
   xmlns:inkscape="http://www.inkscape.org/namespaces/inkscape"
   xmlns:sodipodi="http://sodipodi.sourceforge.net/DTD/sodipodi-0.dtd"
   xmlns:xlink="http://www.w3.org/1999/xlink"
   xmlns="http://www.w3.org/2000/svg"
   xmlns:svg="http://www.w3.org/2000/svg">
  <sodipodi:namedview
     id="namedview13"
     pagecolor="#ffffff"
     bordercolor="#666666"
     borderopacity="1.0"
     inkscape:pageshadow="2"
     inkscape:pageopacity="0.0"
     inkscape:pagecheckerboard="0"
     showgrid="false"
     inkscape:zoom="4.0167598"
     inkscape:cx="103.31711"
     inkscape:cy="90.371349"
     inkscape:window-width="1920"
     inkscape:window-height="968"
     inkscape:window-x="0"
     inkscape:window-y="25"
     inkscape:window-maximized="1"
     inkscape:current-layer="svg3763"
     showguides="false" />
  <defs
     id="defs3752">
    <linearGradient
       id="linearGradient3850">
      <stop
         style="stop-color:#8642df;stop-opacity:1"
         offset="0"
         id="stop3846" />
      <stop
         style="stop-color:#f24554;stop-opacity:1"
         offset="1"
         id="stop3848" />
    </linearGradient>
    <polygon
       id="path-1"
       points="240.7596,0 240.7596,178.86406 0,178.86406 0,0 " />
    <mask
       id="mask-2"
       fill="#ffffff">
      <use
         xlink:href="#path-1"
         id="use3754"
         x="0"
         y="0"
         width="100%"
         height="100%" />
    </mask>
    <linearGradient
       xlink:href="#linearGradient3850"
       id="linearGradient3852"
       x1="-4.469446e-07"
       y1="89.432121"
       x2="240.7596"
       y2="89.432121"
       gradientUnits="userSpaceOnUse" />
  </defs>
  <g
     id="Clip-2"
     style="fill:none;fill-rule:evenodd;stroke:none;stroke-width:1" />
  <path
     d="m 163.84376,81.692032 -11.32519,-5.697159 c -6e-4,-0.0079 -0.002,-0.01572 -0.002,-0.02358 0,-3.930743 3.18313,-7.117669 7.1098,-7.117669 3.92607,0 7.1092,3.186926 7.1092,7.117669 0,2.348165 -1.14098,4.423598 -2.892,5.720743 z m -12.2312,89.915448 h 15.62694 c 0.23919,-13.76062 3.16743,-47.27233 24.99937,-63.62603 25.54238,-19.133651 39.77467,-39.467083 41.15846,-58.802107 1.27627,-17.835899 -8.48937,-29.09899 -11.51244,-32.126267 -6.17117,-6.177314 -14.37483,-9.6551148 -23.10036,-9.7923885 -8.66513,-0.1251791 -16.92919,3.0363485 -23.25439,8.9373005 l 4.53431,4.539706 c 4.31021,-3.211115 9.43222,-4.907381 14.81938,-4.907381 13.70076,0 24.84656,11.159077 24.84656,24.876162 0,6.644165 -2.58395,12.891023 -7.27651,17.589773 C 198.37562,72.391289 182.2715,64.178454 163.6245,54.670289 150.61594,48.037613 135.87205,40.519008 117.91786,37.586674 97.127228,34.190512 76.142108,37.725157 53.76112,48.390775 c -2.130947,1.014737 -3.753318,2.88698 -4.452158,5.13597 -0.699443,2.250804 -0.424619,4.713263 0.755013,6.754831 l 0.564145,0.975429 c 0.01208,0.02056 0.02356,0.04112 0.03564,0.06229 l 14.676235,25.397439 c 2.301883,3.98396 7.43778,5.395399 11.44901,3.148223 l 0.381131,-0.213469 c 0.154626,-0.08587 0.312877,-0.160254 0.473544,-0.221936 l 5.935606,-3.325409 c 0.822058,-0.504344 11.728667,-7.247081 20.711504,-15.469591 1.47741,-1.351571 3.76962,-1.248767 5.12019,0.229797 1.35057,1.479169 1.24789,3.774118 -0.22952,5.126294 -9.833888,9.000798 -21.407324,16.05376 -21.895364,16.349473 -0.03564,0.02237 -0.07188,0.04294 -0.108118,0.0635 l -6.772765,3.794074 c -0.170934,0.09615 -0.347305,0.176581 -0.526696,0.242497 -7.37859,3.824303 -16.623567,1.159865 -20.812377,-6.089635 L 46.335421,68.319644 43.617376,70.197329 C 29.992722,79.832488 19.54214,93.765461 13.425935,110.46931 6.7951128,128.57915 5.4711228,149.71868 9.5977193,171.60748 H 25.849213 c 1.79693,-13.757 13.595662,-24.12146 27.481852,-24.12146 13.885587,0 25.684922,10.36446 27.481852,24.12146 h 15.835935 c 1.797534,-13.757 13.596268,-24.12146 27.481848,-24.12146 13.88619,0 25.68493,10.36446 27.48186,24.12146 z m 15.72781,7.25676 h -15.82023 c -3.58601,0 -6.63203,-2.68742 -7.08624,-6.25109 -1.29742,-10.18789 -10.02597,-17.87037 -20.3032,-17.87037 -10.27662,0 -19.00517,7.68248 -20.30319,17.87037 -0.45361,3.56367 -3.49963,6.25109 -7.08564,6.25109 H 80.7199 c -3.586008,0 -6.63203,-2.68742 -7.085642,-6.25109 -1.297413,-10.18789 -10.025962,-17.87037 -20.303193,-17.87037 -10.276626,0 -19.005779,7.68248 -20.303193,17.87037 -0.453611,3.56367 -3.499634,6.25109 -7.085641,6.25109 H 9.5101378 c -3.4283609,0 -6.3807619,-2.44976 -7.0192005,-5.82536 C -1.8965915,149.83419 -0.46871178,127.33401 6.6211579,107.97117 13.245336,89.878258 24.603744,74.758806 39.468431,64.247394 l 3.354672,-2.317929 c -1.344527,-3.341132 -1.514857,-7.085014 -0.435492,-10.558582 1.297414,-4.175054 4.307196,-7.649831 8.258026,-9.532354 53.649383,-25.56495 89.841663,-7.109808 116.268303,6.365385 19.75173,10.071169 30.51942,14.866675 40.41431,4.961807 3.32387,-3.328432 5.15402,-7.75324 5.15402,-12.459246 0,-9.715588 -7.89441,-17.619406 -17.59844,-17.619406 -3.83546,0 -7.48006,1.213088 -10.53937,3.507433 -2.82918,2.122601 -6.84645,1.837169 -9.34403,-0.664598 l -4.66477,-4.669723 c -1.36204,-1.364271 -2.1243,-3.252842 -2.0929,-5.182534 0.032,-1.929088 0.85649,-3.791051 2.26142,-5.108757 7.71321,-7.2374052 17.80923,-11.11735115 28.3939,-10.96435453 10.6191,0.16690541 20.60279,4.39940883 28.11184,11.91740853 3.57272,3.576977 15.11293,16.87196 13.6168,37.776257 -1.56016,21.804135 -16.37954,43.369402 -44.04562,64.093489 -6.43512,4.8203 -21.46833,20.12359 -22.09589,58.03531 -0.064,3.88055 -3.26951,7.03724 -7.14484,7.03724 z"
     id="Fill-1"
     fill="#02303a"
     mask="url(#mask-2)"
     style="fill:url(#linearGradient3852);fill-opacity:1;fill-rule:evenodd;stroke:none;stroke-width:1"
     transform="translate(0.1202,31.067881)" />
</svg>
