<svg width="100" height="94" viewBox="0 0 100 94" fill="none" xmlns="http://www.w3.org/2000/svg">
<path fill-rule="evenodd" clip-rule="evenodd" d="M3.90625 0C1.74889 0 0 1.74889 0 3.90625V72.8515C0 75.0089 1.74889 76.7578 3.90625 76.7578H48.5111C47.3275 73.6309 46.6797 70.2407 46.6797 66.6992C46.6797 51.0044 59.4028 38.2812 75.0976 38.2812C78.3462 38.2812 81.4675 38.8263 84.375 39.8301V3.90625C84.375 1.74889 82.6261 0 80.4687 0H3.90625Z" fill="url(#paint0_linear)"/>
<path d="M98.8768 86.8703L97.861 85.8545L95.1358 83.1293L92.4037 80.3971C95.1614 76.7932 96.8047 72.2942 96.8047 67.4164C96.8047 58.8059 91.6916 51.3717 84.3446 47.977C83.1237 47.4129 81.842 46.9598 80.5108 46.6321C79.2711 46.3272 77.9901 46.1299 76.677 46.0518C76.2538 46.0268 75.8284 46.0104 75.3991 46.0104C68.8235 46.0104 62.9334 48.9932 59.0038 53.6735C57.1407 55.8928 55.7209 58.4936 54.8768 61.3412C54.3053 63.2684 53.9934 65.3059 53.9934 67.416C53.9934 67.9526 54.02 68.4824 54.0588 69.0088C54.1563 70.3229 54.3676 71.6049 54.6924 72.8426C55.0418 74.175 55.5155 75.4578 56.1026 76.6764C59.5616 83.8559 66.9114 88.8221 75.3993 88.8221C79.5577 88.8221 83.4405 87.626 86.7291 85.5658L89.5024 88.3391L92.2553 91.0924L93.4551 92.2922C94.2037 93.0408 95.185 93.4152 96.1659 93.4152C97.1469 93.4152 98.1283 93.0408 98.8766 92.2922C100.374 90.7949 100.374 88.3674 98.8768 86.8703ZM75.3993 81.1549C71.3891 81.1549 67.7752 79.4272 65.2616 76.6776C64.2346 75.5543 63.3924 74.2602 62.7811 72.8438C62.2629 71.6444 61.9131 70.3563 61.7567 69.01C61.6959 68.4867 61.6614 67.9563 61.6614 67.4172C61.6614 59.842 67.8243 53.6791 75.3995 53.6791C75.8303 53.6791 76.2561 53.7016 76.6774 53.7404C78.0207 53.8653 79.3071 54.1846 80.5112 54.6696C81.9196 55.2362 83.2118 56.0291 84.345 57.0039C87.2758 59.5254 89.1373 63.2571 89.1373 67.4172C89.1371 74.9918 82.9745 81.1549 75.3993 81.1549Z" fill="url(#paint1_linear)"/>
<path d="M17.8685 46.4581C16.7037 46.4581 15.8169 46.0908 15.2081 45.3562C14.5992 44.5922 14.2948 43.6813 14.2948 42.6235V42.4471C14.2948 41.3893 14.5992 40.4931 15.2081 39.7585C15.8169 38.9945 16.7037 38.6125 17.8685 38.6125C19.0333 38.6125 19.9201 38.9945 20.5289 39.7585C21.1378 40.4931 21.4422 41.3893 21.4422 42.4471V42.6235C21.4422 43.6813 21.1378 44.5922 20.5289 45.3562C19.9201 46.0908 19.0333 46.4581 17.8685 46.4581ZM14.6125 19.4199V14.2948H21.1245V19.4199L19.0597 34.582H16.6773L14.6125 19.4199Z" fill="white"/>
<path d="M35.7369 46.4581C34.5721 46.4581 33.6853 46.0908 33.0765 45.3562C32.4676 44.5922 32.1632 43.6813 32.1632 42.6235V42.4471C32.1632 41.3893 32.4676 40.4931 33.0765 39.7585C33.6853 38.9945 34.5721 38.6125 35.7369 38.6125C36.9017 38.6125 37.7885 38.9945 38.3973 39.7585C39.0062 40.4931 39.3106 41.3893 39.3106 42.4471V42.6235C39.3106 43.6813 39.0062 44.5922 38.3973 45.3562C37.7885 46.0908 36.9017 46.4581 35.7369 46.4581ZM32.4809 19.4199V14.2948H38.9929V19.4199L36.9281 34.582H34.5457L32.4809 19.4199Z" fill="white"/>
<defs>
<linearGradient id="paint0_linear" x1="-14.187" y1="70.5024" x2="56.9388" y2="-7.54701" gradientUnits="userSpaceOnUse">
<stop stop-color="#E6675F"/>
<stop offset="0.416667" stop-color="#FD7B61"/>
<stop offset="0.743" stop-color="#F58613"/>
<stop offset="1" stop-color="#F88909"/>
</linearGradient>
<linearGradient id="paint1_linear" x1="46.2578" y1="89.552" x2="90.3519" y2="46.8323" gradientUnits="userSpaceOnUse">
<stop stop-color="#E6675F"/>
<stop offset="0.416667" stop-color="#FD7B61"/>
<stop offset="0.743" stop-color="#F58613"/>
<stop offset="1" stop-color="#F88909"/>
</linearGradient>
</defs>
</svg>
