<svg width="225" height="53" viewBox="0 0 225 53" fill="none" xmlns="http://www.w3.org/2000/svg">
<path d="M88.6825 42.434V8H81.4787V20.4528C79.7725 18.4245 77.4029 16.6792 73.564 16.6792C67.545 16.6792 62 21.3019 62 29.7453V29.8396C62 38.283 67.6398 42.9057 73.564 42.9057C77.3081 42.9057 79.7252 41.1604 81.4787 38.8019V42.434H88.6825ZM81.5735 29.8396C81.5735 34.0377 78.7773 36.8208 75.4123 36.8208C72.0474 36.8208 69.2038 34.0377 69.2038 29.8396V29.7453C69.2038 25.5 72.0474 22.7642 75.4123 22.7642C78.7773 22.7642 81.5735 25.5472 81.5735 29.7453V29.8396Z" fill="#222222"/>
<path d="M120.166 30.5V30.4057C120.166 23.2358 116.28 16.6792 107.797 16.6792C100.403 16.6792 95.2375 22.6226 95.2375 29.8396V29.934C95.2375 37.6698 100.877 43 108.508 43C113.105 43 116.517 41.2076 118.887 38.283L114.764 34.6509C112.773 36.4906 111.019 37.2453 108.602 37.2453C105.38 37.2453 103.105 35.5472 102.394 32.2925H120.072C120.119 31.6321 120.166 31.2075 120.166 30.5ZM113.152 27.8113H102.299C102.868 24.5566 104.811 22.434 107.797 22.434C110.83 22.434 112.726 24.6038 113.152 27.8113Z" fill="#222222"/>
<path d="M141.152 41.3962V35.6415C140.109 36.2076 138.924 36.5377 137.597 36.5377C135.986 36.5377 135.275 35.7359 135.275 34.0849V23.283H141.246V17.1509H135.275V10.6887H128.071V17.1509H125.038V23.283H128.071V35.2642C128.071 41.1132 131.057 42.8585 135.464 42.8585C137.881 42.8585 139.635 42.2925 141.152 41.3962Z" fill="#222222"/>
<path d="M171.928 30.5V30.4057C171.928 23.2358 168.042 16.6792 159.559 16.6792C152.165 16.6792 146.999 22.6226 146.999 29.8396V29.934C146.999 37.6698 152.639 43 160.27 43C164.867 43 168.279 41.2076 170.649 38.283L166.526 34.6509C164.535 36.4906 162.781 37.2453 160.364 37.2453C157.142 37.2453 154.867 35.5472 154.156 32.2925H171.834C171.881 31.6321 171.928 31.2075 171.928 30.5ZM164.914 27.8113H154.061C154.63 24.5566 156.573 22.434 159.559 22.434C162.592 22.434 164.488 24.6038 164.914 27.8113Z" fill="#222222"/>
<path d="M203.245 42.434L193.245 27.1038L202.914 17.1509H194.288L185.852 26.3491V8H178.648V42.434H185.852V34.7453L188.364 32.1038L194.999 42.434H203.245Z" fill="#222222"/>
<path d="M224.905 41.3962V35.6415C223.863 36.2076 222.678 36.5377 221.351 36.5377C219.739 36.5377 219.028 35.7359 219.028 34.0849V23.283H225V17.1509H219.028V10.6887H211.825V17.1509H208.791V23.283H211.825V35.2642C211.825 41.1132 214.81 42.8585 219.218 42.8585C221.635 42.8585 223.389 42.2925 224.905 41.3962Z" fill="#222222"/>
<path fill-rule="evenodd" clip-rule="evenodd" d="M2.18611 0C0.978755 0 0 0.978755 0 2.18611V40.771C0 41.9783 0.978755 42.9571 2.18611 42.9571H27.149C26.4866 41.2072 26.124 39.3098 26.124 37.3279C26.124 28.5443 33.2445 21.4239 42.028 21.4239C43.846 21.4239 45.5928 21.729 47.22 22.2907V2.18611C47.22 0.978755 46.2412 0 45.0339 0H2.18611Z" fill="url(#paint0_linear)"/>
<path d="M55.3359 48.6166L54.7674 48.0481L53.2423 46.5229L51.7133 44.9938C53.2566 42.9769 54.1763 40.4591 54.1763 37.7293C54.1763 32.9104 51.3148 28.7499 47.203 26.8501C46.5198 26.5344 45.8025 26.2808 45.0575 26.0974C44.3637 25.9268 43.6468 25.8164 42.9119 25.7727C42.675 25.7587 42.437 25.7495 42.1967 25.7495C38.5167 25.7495 35.2204 27.4188 33.0212 30.0381C31.9785 31.2802 31.184 32.7357 30.7116 34.3293C30.3917 35.4079 30.2172 36.5481 30.2172 37.7291C30.2172 38.0293 30.232 38.3259 30.2538 38.6205C30.3083 39.3559 30.4266 40.0733 30.6084 40.766C30.8039 41.5117 31.069 42.2296 31.3976 42.9116C33.3334 46.9295 37.4466 49.7089 42.1968 49.7089C44.5241 49.7089 46.6971 49.0395 48.5375 47.8865L50.0896 49.4385L51.6302 50.9794L52.3017 51.6509C52.7207 52.0699 53.2698 52.2794 53.8187 52.2794C54.3678 52.2794 54.917 52.0699 55.3358 51.6509C56.174 50.8129 56.174 49.4544 55.3359 48.6166ZM42.1968 45.418C39.9526 45.418 37.9301 44.451 36.5233 42.9122C35.9486 42.2836 35.4773 41.5594 35.1351 40.7667C34.8452 40.0954 34.6494 39.3746 34.5618 38.6211C34.5278 38.3283 34.5085 38.0314 34.5085 37.7297C34.5085 33.4903 37.9575 30.0413 42.1969 30.0413C42.4381 30.0413 42.6764 30.0539 42.9121 30.0756C43.6639 30.1455 44.3838 30.3242 45.0577 30.5956C45.8459 30.9127 46.5691 31.3564 47.2032 31.902C48.8435 33.3131 49.8853 35.4015 49.8853 37.7297C49.8852 41.9688 46.4363 45.418 42.1968 45.418Z" fill="url(#paint1_linear)"/>
<path d="M10 26C9.34815 26 8.85185 25.7944 8.51111 25.3833C8.17037 24.9558 8 24.446 8 23.854V23.7553C8 23.1633 8.17037 22.6617 8.51111 22.2506C8.85185 21.8231 9.34815 21.6093 10 21.6093C10.6519 21.6093 11.1481 21.8231 11.4889 22.2506C11.8296 22.6617 12 23.1633 12 23.7553V23.854C12 24.446 11.8296 24.9558 11.4889 25.3833C11.1481 25.7944 10.6519 26 10 26ZM8.17778 10.8682V8H11.8222V10.8682L10.6667 19.3536H9.33333L8.17778 10.8682Z" fill="white"/>
<path d="M20 26C19.3481 26 18.8519 25.7944 18.5111 25.3833C18.1704 24.9558 18 24.446 18 23.854V23.7553C18 23.1633 18.1704 22.6617 18.5111 22.2506C18.8519 21.8231 19.3481 21.6093 20 21.6093C20.6519 21.6093 21.1481 21.8231 21.4889 22.2506C21.8296 22.6617 22 23.1633 22 23.7553V23.854C22 24.446 21.8296 24.9558 21.4889 25.3833C21.1481 25.7944 20.6519 26 20 26ZM18.1778 10.8682V8H21.8222V10.8682L20.6667 19.3536H19.3333L18.1778 10.8682Z" fill="white"/>
<defs>
<linearGradient id="paint0_linear" x1="-7.93966" y1="39.4563" x2="31.8655" y2="-4.22364" gradientUnits="userSpaceOnUse">
<stop stop-color="#E6675F"/>
<stop offset="0.416667" stop-color="#FD7B61"/>
<stop offset="0.743" stop-color="#F58613"/>
<stop offset="1" stop-color="#F88909"/>
</linearGradient>
<linearGradient id="paint1_linear" x1="25.888" y1="50.1173" x2="50.565" y2="26.2095" gradientUnits="userSpaceOnUse">
<stop stop-color="#E6675F"/>
<stop offset="0.416667" stop-color="#FD7B61"/>
<stop offset="0.743" stop-color="#F58613"/>
<stop offset="1" stop-color="#F88909"/>
</linearGradient>
</defs>
</svg>
