<svg width="163" height="139" viewBox="0 0 163 139" fill="none" xmlns="http://www.w3.org/2000/svg">
<path d="M26.6825 138.434V104H19.4787V116.453C17.7725 114.425 15.4029 112.679 11.564 112.679C5.54504 112.679 0 117.302 0 125.745V125.84C0 134.283 5.63982 138.906 11.564 138.906C15.3081 138.906 17.7252 137.161 19.4787 134.802V138.434H26.6825ZM19.5735 125.84C19.5735 130.038 16.7773 132.821 13.4123 132.821C10.0474 132.821 7.20381 130.038 7.20381 125.84V125.745C7.20381 121.5 10.0474 118.764 13.4123 118.764C16.7773 118.764 19.5735 121.547 19.5735 125.745V125.84Z" fill="#222222"/>
<path d="M58.1664 126.5V126.406C58.1664 119.236 54.2802 112.679 45.7967 112.679C38.4034 112.679 33.2375 118.623 33.2375 125.84V125.934C33.2375 133.67 38.8773 139 46.5076 139C51.1048 139 54.5171 137.208 56.8868 134.283L52.7636 130.651C50.773 132.491 49.0195 133.245 46.6024 133.245C43.3797 133.245 41.1048 131.547 40.3939 128.293H58.0716C58.119 127.632 58.1664 127.208 58.1664 126.5ZM51.1522 123.811H40.2991C40.8678 120.557 42.8109 118.434 45.7967 118.434C48.8299 118.434 50.7256 120.604 51.1522 123.811Z" fill="#222222"/>
<path d="M79.1516 137.396V131.642C78.1089 132.208 76.9241 132.538 75.597 132.538C73.9857 132.538 73.2748 131.736 73.2748 130.085V119.283H79.2463V113.151H73.2748V106.689H66.071V113.151H63.0378V119.283H66.071V131.264C66.071 137.113 69.0568 138.859 73.4644 138.859C75.8814 138.859 77.635 138.293 79.1516 137.396Z" fill="#222222"/>
<path d="M109.928 126.5V126.406C109.928 119.236 106.042 112.679 97.5587 112.679C90.1654 112.679 84.9995 118.623 84.9995 125.84V125.934C84.9995 133.67 90.6393 139 98.2696 139C102.867 139 106.279 137.208 108.649 134.283L104.526 130.651C102.535 132.491 100.781 133.245 98.3644 133.245C95.1417 133.245 92.8668 131.547 92.1559 128.293H109.834C109.881 127.632 109.928 127.208 109.928 126.5ZM102.914 123.811H92.0611C92.6298 120.557 94.5729 118.434 97.5587 118.434C100.592 118.434 102.488 120.604 102.914 123.811Z" fill="#222222"/>
<path d="M141.245 138.434L131.245 123.104L140.914 113.151H132.288L123.852 122.349V104H116.648V138.434H123.852V130.745L126.364 128.104L132.999 138.434H141.245Z" fill="#222222"/>
<path d="M162.905 137.396V131.642C161.863 132.208 160.678 132.538 159.351 132.538C157.739 132.538 157.028 131.736 157.028 130.085V119.283H163V113.151H157.028V106.689H149.825V113.151H146.791V119.283H149.825V131.264C149.825 137.113 152.81 138.859 157.218 138.859C159.635 138.859 161.389 138.293 162.905 137.396Z" fill="#222222"/>
<path fill-rule="evenodd" clip-rule="evenodd" d="M42.9062 0C40.7489 0 39 1.74889 39 3.90625V72.8515C39 75.0089 40.7489 76.7578 42.9062 76.7578H84.6156C86.0146 76.7578 86.9853 75.3543 86.6268 74.0019C86.0089 71.6717 85.6797 69.2239 85.6797 66.6992C85.6797 51.0044 98.4028 38.2812 114.098 38.2812C116.364 38.2812 118.568 38.5465 120.681 39.0477C122.018 39.3649 123.375 38.3979 123.375 37.0238V3.90625C123.375 1.74889 121.626 0 119.469 0H42.9062Z" fill="url(#paint0_linear)"/>
<path d="M137.877 86.8703L136.861 85.8545L134.136 83.1293L132.642 81.6356C131.933 80.9266 131.868 79.8075 132.411 78.9644C134.557 75.6306 135.805 71.6673 135.805 67.4164C135.805 58.8059 130.692 51.3717 123.345 47.977C122.124 47.4129 120.842 46.9598 119.511 46.6321C118.271 46.3272 116.99 46.1299 115.677 46.0518C115.254 46.0268 114.828 46.0104 114.399 46.0104C107.823 46.0104 101.933 48.9932 98.0038 53.6735C96.1407 55.8928 94.7209 58.4936 93.8768 61.3412C93.3053 63.2684 92.9934 65.3059 92.9934 67.416C92.9934 67.9526 93.02 68.4824 93.0588 69.0088C93.1563 70.3229 93.3676 71.6049 93.6924 72.8426C94.0418 74.175 94.5155 75.4578 95.1026 76.6764C98.5616 83.8559 105.911 88.8221 114.399 88.8221C117.99 88.8221 121.375 87.9304 124.349 86.3607C125.174 85.9256 126.196 86.033 126.855 86.6921L128.502 88.3391L131.255 91.0924L132.455 92.2922C133.204 93.0408 134.185 93.4152 135.166 93.4152C136.147 93.4152 137.128 93.0408 137.877 92.2922C139.374 90.7949 139.374 88.3674 137.877 86.8703ZM114.399 81.1549C110.389 81.1549 106.775 79.4272 104.262 76.6776C103.235 75.5543 102.392 74.2602 101.781 72.8438C101.263 71.6444 100.913 70.3563 100.757 69.01C100.696 68.4867 100.661 67.9563 100.661 67.4172C100.661 59.842 106.824 53.6791 114.399 53.6791C114.83 53.6791 115.256 53.7016 115.677 53.7404C117.021 53.8653 118.307 54.1846 119.511 54.6696C120.92 55.2362 122.212 56.0291 123.345 57.0039C126.276 59.5254 128.137 63.2571 128.137 67.4172C128.137 74.9918 121.974 81.1549 114.399 81.1549Z" fill="url(#paint1_linear)"/>
<path d="M56.8684 46.4581C55.7036 46.4581 54.8168 46.0908 54.208 45.3562C53.5991 44.5922 53.2947 43.6813 53.2947 42.6235V42.4471C53.2947 41.3893 53.5991 40.4931 54.208 39.7585C54.8168 38.9945 55.7036 38.6125 56.8684 38.6125C58.0331 38.6125 58.9199 38.9945 59.5288 39.7585C60.1376 40.4931 60.4421 41.3893 60.4421 42.4471V42.6235C60.4421 43.6813 60.1376 44.5922 59.5288 45.3562C58.9199 46.0908 58.0331 46.4581 56.8684 46.4581ZM53.6123 19.4199V14.2948H60.1244V19.4199L58.0596 34.582H55.6771L53.6123 19.4199Z" fill="white"/>
<path d="M74.737 46.4581C73.5723 46.4581 72.6855 46.0908 72.0766 45.3562C71.4678 44.5922 71.1633 43.6813 71.1633 42.6235V42.4471C71.1633 41.3893 71.4678 40.4931 72.0766 39.7585C72.6855 38.9945 73.5723 38.6125 74.737 38.6125C75.9018 38.6125 76.7886 38.9945 77.3974 39.7585C78.0063 40.4931 78.3107 41.3893 78.3107 42.4471V42.6235C78.3107 43.6813 78.0063 44.5922 77.3974 45.3562C76.7886 46.0908 75.9018 46.4581 74.737 46.4581ZM71.481 19.4199V14.2948H77.9931V19.4199L75.9283 34.582H73.5458L71.481 19.4199Z" fill="white"/>
<defs>
<linearGradient id="paint0_linear" x1="39" y1="73.8613" x2="131.884" y2="59.4842" gradientUnits="userSpaceOnUse">
<stop stop-color="#7942EE"/>
<stop offset="1" stop-color="#FF4651"/>
</linearGradient>
<linearGradient id="paint1_linear" x1="133.725" y1="92.1057" x2="147.962" y2="54.0383" gradientUnits="userSpaceOnUse">
<stop stop-color="#7942EE"/>
<stop offset="1" stop-color="#FF4651"/>
</linearGradient>
</defs>
</svg>
